<svg width="112" height="434" viewBox="0 0 112 434" fill="none" xmlns="http://www.w3.org/2000/svg">
<rect x="16.5" y="262.5" width="85" height="82" rx="9.5" fill="white" stroke="black" stroke-width="3"/>
<path d="M92 304.189C92 286.964 77.673 273 60 273C42.327 273 28 286.964 28 304.189C28 319.757 39.702 332.66 55 335V313.205H46.875V304.189H55V297.318C55 289.501 59.7775 285.183 67.0868 285.183C70.588 285.183 74.25 285.793 74.25 285.793V293.468H70.215C66.2395 293.468 65 295.872 65 298.339V304.189H73.875L72.4562 313.205H65V335C80.298 332.66 92 319.757 92 304.189Z" fill="#1877F2"/>
<rect x="16.5" y="350.5" width="85" height="82" rx="9.5" fill="white" stroke="black" stroke-width="3"/>
<path d="M87 373.564C84.9405 374.523 82.7559 375.153 80.519 375.432C82.849 373.964 84.638 371.638 85.4804 368.868C83.2655 370.25 80.8422 371.224 78.3152 371.747C76.2567 369.441 73.3243 368 70.0787 368C63.8469 368 58.7945 373.313 58.7945 379.865C58.7945 380.795 58.8944 381.7 59.0866 382.569C49.7087 382.074 41.3943 377.35 35.8287 370.172C34.8576 371.924 34.3012 373.963 34.3012 376.137C34.3012 380.253 36.2934 383.885 39.321 386.013C37.5291 385.954 35.7766 385.445 34.2099 384.529C34.2092 384.578 34.2092 384.628 34.2092 384.678C34.2092 390.427 38.0988 395.222 43.2606 396.312C41.599 396.788 39.856 396.857 38.1649 396.516C39.6007 401.23 43.7681 404.66 48.7056 404.756C44.8438 407.938 39.9782 409.835 34.6918 409.835C33.7808 409.835 32.8828 409.779 32 409.669C36.9936 413.036 42.9248 415 49.2971 415C70.0525 415 81.402 396.92 81.402 381.241C81.402 380.726 81.3913 380.215 81.3694 379.706C83.5785 378.027 85.4852 375.947 87 373.564Z" fill="#55ACEE"/>
<rect x="16.5" y="174.5" width="85" height="82" rx="9.5" fill="white" stroke="black" stroke-width="3"/>
<g clip-path="url(#clip0_4269_92)">
<path d="M25.4938 214.895C25.4922 220.66 27.0409 226.289 29.9858 231.25L25.2122 248.202L43.049 243.653C47.9825 246.265 53.51 247.634 59.1272 247.634H59.1419C77.6851 247.634 92.7797 232.959 92.7876 214.921C92.7911 206.181 89.2944 197.961 82.9414 191.778C76.5894 185.595 68.1416 182.188 59.1406 182.184C40.5952 182.184 25.5017 196.858 25.4941 214.895" fill="url(#paint0_linear_4269_92)"/>
<path d="M24.2926 214.885C24.2907 220.857 25.8949 226.687 28.9448 231.826L24 249.385L42.4764 244.673C47.5673 247.373 53.2991 248.796 59.1315 248.798H59.1466C78.355 248.798 93.9918 233.595 94 214.912C94.0033 205.857 90.3808 197.343 83.8008 190.938C77.22 184.533 68.47 181.004 59.1466 181C39.9348 181 24.3002 196.201 24.2926 214.885ZM35.2957 230.941L34.6058 229.876C31.7057 225.391 30.175 220.208 30.1772 214.887C30.1835 199.357 43.1784 186.723 59.1575 186.723C66.8958 186.726 74.1681 189.66 79.638 194.983C85.1075 200.306 88.1173 207.383 88.1154 214.91C88.1082 230.439 75.1131 243.075 59.1466 243.075H59.1351C53.9362 243.072 48.8374 241.714 44.3908 239.148L43.3326 238.538L32.3683 241.334L35.2957 230.941V230.941Z" fill="url(#paint1_linear_4269_92)"/>
<path d="M50.4354 200.719C49.783 199.308 49.0964 199.28 48.476 199.255C47.9679 199.234 47.3871 199.236 46.8069 199.236C46.2261 199.236 45.2825 199.448 44.4849 200.295C43.6864 201.143 41.4366 203.192 41.4366 207.359C41.4366 211.526 44.5573 215.553 44.9924 216.119C45.428 216.683 51.017 225.508 59.8687 228.903C67.2253 231.724 68.7224 231.163 70.319 231.022C71.9158 230.881 75.4716 228.973 76.1971 226.996C76.923 225.018 76.923 223.323 76.7054 222.969C76.4877 222.616 75.9069 222.404 75.036 221.981C74.1649 221.557 69.8834 219.508 69.0852 219.225C68.2868 218.943 67.7063 218.802 67.1255 219.65C66.5447 220.497 64.877 222.404 64.3687 222.969C63.8609 223.535 63.3526 223.606 62.482 223.182C61.6105 222.757 58.8059 221.864 55.4784 218.978C52.8895 216.733 51.1417 213.961 50.6337 213.113C50.1256 212.266 50.5792 211.807 51.0159 211.385C51.4072 211.006 51.8871 210.396 52.323 209.902C52.7572 209.407 52.9021 209.054 53.1925 208.489C53.4831 207.924 53.3377 207.429 53.1203 207.006C52.9021 206.582 51.2098 202.393 50.4354 200.719Z" fill="white"/>
</g>
<defs>
<linearGradient id="paint0_linear_4269_92" x1="58.9999" y1="248.202" x2="58.9999" y2="182.184" gradientUnits="userSpaceOnUse">
<stop stop-color="#1FAF38"/>
<stop offset="1" stop-color="#60D669"/>
</linearGradient>
<linearGradient id="paint1_linear_4269_92" x1="59" y1="249.385" x2="59" y2="181" gradientUnits="userSpaceOnUse">
<stop stop-color="#F9F9F9"/>
<stop offset="1" stop-color="white"/>
</linearGradient>
<clipPath id="clip0_4269_92">
<rect width="70" height="68.6118" fill="white" transform="translate(24 181)"/>
</clipPath>
</defs>
</svg>
